<svg width="200" height="50" viewBox="0 0 200 50" fill="none" xmlns="http://www.w3.org/2000/svg">
  <!-- Diamond icon -->
  <path d="M25 25L15 15L5 25L15 35L25 25Z" fill="#4285F4"/>
  
  <!-- Lines to the left of diamond -->
  <rect x="0" y="22" width="10" height="2" rx="1" fill="#4285F4"/>
  <rect x="2" y="25" width="8" height="2" rx="1" fill="#4285F4"/>
  <rect x="0" y="28" width="10" height="2" rx="1" fill="#4285F4"/>
  
  <!-- Gistify text -->
  <path d="M40 10H60C63.3137 10 66 12.6863 66 16V16C66 19.3137 63.3137 22 60 22H40V10Z" fill="white"/>
  <path d="M40 22V40H60C63.3137 40 66 37.3137 66 34V34C66 30.6863 63.3137 28 60 28H40" fill="white"/>
  
  <rect x="70" y="10" width="6" height="30" fill="white"/>
  
  <path d="M85 25C85 16.7157 91.7157 10 100 10V10C108.284 10 115 16.7157 115 25V25C115 33.2843 108.284 40 100 40V40C91.7157 40 85 33.2843 85 25Z" fill="white"/>
  <circle cx="100" cy="25" r="7" fill="#4285F4"/>
  
  <rect x="120" y="10" width="6" height="30" fill="white"/>
  
  <path d="M130 10H136V25H146V10H152V40H146V31H136V40H130V10Z" fill="white"/>
  
  <path d="M160 10H166V34H186V40H160V10Z" fill="white"/>
</svg>

